<svg width="450" height="378" viewBox="0 0 450 378" fill="none" xmlns="http://www.w3.org/2000/svg">
<path d="M236.577 356.179C224.923 352.806 230.356 334.128 230.356 334.128L201.149 328.028C201.149 328.028 203.62 340.312 201.741 351.286C200.693 357.404 199.809 369.158 201.06 373.256C204.089 380.75 248.048 375.383 236.577 356.179Z" fill="#FDCBB4"/>
<path d="M201.149 328.028C201.149 328.028 203.62 340.312 201.741 351.286C200.693 357.404 199.808 369.158 201.06 373.256C201.299 373.846 201.792 374.357 202.491 374.787C201.252 369.74 200.922 357.666 202.645 354.643C204.368 351.619 203.101 346.447 204.593 347.158C208.221 348.886 220.445 346.623 229.421 347.175C229.586 342.762 230.356 334.128 230.356 334.128L201.149 328.028Z" fill="#F1A089"/>
<path d="M259.69 368.524C253.231 367.224 247.449 359.196 236.173 356.034C231.323 359.693 231.695 366.519 230.111 369.634C228.527 372.75 227.801 374.881 214.325 374.778C200.85 374.676 202.135 373.548 201.002 373.255C199.87 372.962 199.695 377.226 200.547 377.232C200.931 377.235 213.38 377.879 226.747 376.428C244.406 377.857 252.03 377.784 255.222 377.73C261.039 377.632 264.786 369.842 259.69 368.524Z" fill="#E05357"/>
<path d="M175.183 351.197C168.978 347.912 180.944 324.727 180.944 324.727L152.699 315.107C152.699 315.107 153.653 327.601 150.448 338.263C148.661 344.207 146.347 355.765 147.089 359.985C146.371 362.226 164.599 367.073 172.627 365.613C177.224 364.213 178.997 358.507 175.183 351.197Z" fill="#FDCBB4"/>
<path d="M152.699 315.107C152.699 315.107 153.652 327.601 150.447 338.263C148.66 344.207 145.972 356.101 146.714 360.321C146.879 360.937 147.68 361.167 148.323 361.68C147.709 356.519 148.368 346.506 150.447 343.716C151.535 342.256 152.255 338.265 153.649 339.153C157.038 341.311 164.514 343.531 173.357 345.175C174.059 340.815 180.943 324.727 180.943 324.727L152.699 315.107Z" fill="#F1A089"/>
<path d="M193.677 368.437C187.591 365.223 185.766 355.394 175 351.015C173.216 356.189 174.625 360.881 173.176 363.846C171.728 366.81 164.454 363.689 155.447 362.511C146.439 361.333 147.44 360.317 146.718 359.936C145.996 359.555 145.349 363.771 145.918 363.846C146.174 363.879 158.395 365.978 163.687 365.978C170.986 365.978 175.73 372 189.539 377.215C193.21 378.6 196.924 370.152 193.677 368.437Z" fill="#E05357"/>
<path d="M83.7975 167.273H93.8587L53.4256 377.377H50.73L83.7975 167.273Z" fill="#312E63"/>
<path d="M328.728 167.073H318.667L359.1 377.176H361.796L328.728 167.073Z" fill="#312E63"/>
<path d="M318.667 167.073H325.73L346.209 310.191L318.667 167.073Z" fill="#232056"/>
<path d="M93.8588 167.273H88.8282L61.0173 337.929L93.8588 167.273Z" fill="#232056"/>
<path d="M43.7957 167.255C43.7957 164.937 45.6748 163.058 47.9927 163.058H364.781C367.099 163.058 368.978 164.937 368.978 167.255V167.255C368.978 169.573 367.099 171.453 364.781 171.453H47.9927C45.6748 171.453 43.7957 169.573 43.7957 167.255V167.255Z" fill="#312E63"/>
<circle cx="353.649" cy="28.6496" r="26.3804" fill="#CDEBF7"/>
<circle cx="353.65" cy="28.6496" r="28.1496" stroke="#1A9CDD"/>
<path d="M352.149 28.3662C352.149 29.1946 352.821 29.8662 353.649 29.8662C354.478 29.8662 355.149 29.1946 355.149 28.3662H352.149ZM355.149 15.3179C355.149 14.4894 354.478 13.8179 353.649 13.8179C352.821 13.8179 352.149 14.4894 352.149 15.3179H355.149ZM355.149 28.3662V15.3179H352.149V28.3662H355.149Z" fill="#1A9CDD"/>
<path d="M353.225 4.53845V8.22603" stroke="#1A9CDD" stroke-width="2"/>
<path d="M329.539 28.2241L333.227 28.2241" stroke="#1A9CDD" stroke-width="2"/>
<path d="M353.225 48.2223V51.9099" stroke="#1A9CDD" stroke-width="2"/>
<path d="M373.222 28.2241L376.91 28.2241" stroke="#1A9CDD" stroke-width="2"/>
<path d="M370.385 29.8658C371.214 29.8658 371.885 29.1943 371.885 28.3658C371.885 27.5374 371.214 26.8658 370.385 26.8658V29.8658ZM353.933 26.8658C353.105 26.8658 352.433 27.5374 352.433 28.3658C352.433 29.1943 353.105 29.8658 353.933 29.8658V26.8658ZM370.385 26.8658H353.933V29.8658H370.385V26.8658Z" fill="#1A9CDD"/>
<circle cx="353.649" cy="28.6499" r="3.12026" fill="#1A9CDD"/>
<path d="M0 377.292H450" stroke="#232056"/>
<path d="M132.552 72.365C127.844 81.5026 129.003 87.7639 130.474 93.1678C112.044 99.1897 103.64 92.9741 96.8977 81.3065L114.668 64.1532C120.92 65.3814 123.725 64.4065 132.552 72.365Z" fill="#FECBB5"/>
<path d="M114.668 64.1532C120.921 65.3814 123.725 64.4065 132.552 72.365C130.056 77.2094 129.209 81.2453 129.184 84.7736C119.246 80.686 115.366 69.3235 114.668 64.1532Z" fill="#E98E64"/>
<path d="M136.131 333.497C148.175 299.19 162.408 261.963 171.897 226.562C190.616 220.321 212.707 219.329 211.313 226.562C206.568 251.197 195.619 317.621 189.78 345.358C181.204 347.547 146.715 333.497 136.131 333.497Z" fill="#0B1F83"/>
<path d="M171.898 226.562C190.617 220.321 212.707 219.329 211.314 226.562C207.459 246.576 199.509 294.172 193.531 326.197C194.958 301.015 198.176 247.912 198.176 242.803C194.818 246.89 189.112 250.224 186.862 250.65L171.898 226.562Z" fill="#09125A"/>
<path d="M190.754 340.613C177.372 341.89 153.285 329.299 143.248 329.299C145 325.504 166.728 258.124 177.372 224.908" stroke="#4B4FE2" stroke-width="2"/>
<path d="M197.081 345.501C191.625 346.285 205.21 231.214 201.095 236.233C184.489 256.489 163.139 250.55 147.811 250.55C86.315 250.55 69.2124 234.901 74.0878 199.555C210.585 183.861 223.55 189.729 229.198 195.175C239.417 205.029 239.416 220.723 251.826 345.501C244.344 349.007 210.767 343.533 197.081 345.501Z" fill="#0B1F83"/>
<path d="M201.095 236.233C200.238 237.279 199.371 238.251 198.494 239.153C202.95 233.801 212.19 220.431 213.504 209.774C212.336 219.993 205.16 238.241 201.719 246.088C202.037 239.159 201.932 235.212 201.095 236.233Z" fill="#031677"/>
<path d="M74.0879 199.555C74.0879 252.292 107.482 237.876 145.438 246.27C183.394 254.665 201.095 227.657 203.832 232.037C208.942 246.27 201.095 334.592 201.095 340.066C208.394 338.058 240.511 344.08 251.377 340.978" stroke="#4B4FE2" stroke-width="2"/>
<path d="M209.191 101.65H288.856C290.23 101.65 291.195 103.004 290.746 104.303L271.896 158.886C271.618 159.693 270.859 160.234 270.006 160.234H190.341C188.967 160.234 188.002 158.88 188.451 157.581L207.301 102.997C207.579 102.191 208.338 101.65 209.191 101.65Z" fill="white" stroke="#FF7301" stroke-width="2"/>
<path d="M288.86 100.65H209.479C208.199 100.65 207.059 101.462 206.643 102.673L206.569 102.886H285.417C287.477 102.886 288.924 104.914 288.254 106.861L270.133 159.572C269.853 160.386 270.458 161.234 271.319 161.234C271.854 161.234 272.33 160.894 272.504 160.388L291.697 104.626C292.367 102.678 290.92 100.65 288.86 100.65Z" fill="#FF7301"/>
<path d="M187.304 157.949H272.993L271.575 163.058H185.401L187.304 157.949Z" fill="#FF7301"/>
<path d="M188.398 159.774H268.248L266.831 162.693H187.226L188.398 159.774Z" fill="#FF8420"/>
<path d="M202.516 130.236C201.963 130.236 201.516 130.683 201.516 131.236C201.516 131.788 201.963 132.236 202.516 132.236V130.236ZM229.068 132.236C229.62 132.236 230.068 131.788 230.068 131.236C230.068 130.683 229.62 130.236 229.068 130.236V132.236ZM202.516 132.236H229.068V130.236H202.516V132.236Z" fill="#CDEBF7"/>
<path d="M201.3 133.479C200.747 133.479 200.3 133.926 200.3 134.479C200.3 135.031 200.747 135.479 201.3 135.479V133.479ZM226.433 135.479C226.986 135.479 227.433 135.031 227.433 134.479C227.433 133.926 226.986 133.479 226.433 133.479V135.479ZM201.3 135.479H226.433V133.479H201.3V135.479Z" fill="#CDEBF7"/>
<path d="M200.083 137.127C199.531 137.127 199.083 137.575 199.083 138.127C199.083 138.679 199.531 139.127 200.083 139.127V137.127ZM223.596 139.127C224.148 139.127 224.596 138.679 224.596 138.127C224.596 137.575 224.148 137.127 223.596 137.127V139.127ZM200.083 139.127H223.596V137.127H200.083V139.127Z" fill="#CDEBF7"/>
<path d="M198.867 140.37C198.315 140.37 197.867 140.818 197.867 141.37C197.867 141.922 198.315 142.37 198.867 142.37V140.37ZM221.163 142.37C221.716 142.37 222.163 141.922 222.163 141.37C222.163 140.818 221.716 140.37 221.163 140.37V142.37ZM198.867 142.37H221.163V140.37H198.867V142.37Z" fill="#CDEBF7"/>
<path d="M210.774 110.265C211.058 109.47 211.812 108.94 212.656 108.94H229.191C230.596 108.94 231.563 110.351 231.056 111.661L227.114 121.85C226.816 122.62 226.075 123.128 225.249 123.128H209.005C207.622 123.128 206.656 121.756 207.123 120.453L210.774 110.265Z" fill="#CDEBF7"/>
<path d="M244.695 109.459C244.815 109.146 245.116 108.94 245.451 108.94H280.089C280.729 108.94 281.117 109.646 280.774 110.185V110.185C280.625 110.42 280.367 110.561 280.089 110.561H245.451C244.882 110.561 244.49 109.99 244.695 109.459V109.459Z" fill="#CDEBF7"/>
<path d="M242.263 113.513C242.383 113.2 242.684 112.994 243.019 112.994H277.657C278.297 112.994 278.685 113.699 278.342 114.239V114.239C278.193 114.473 277.935 114.615 277.657 114.615H243.019C242.45 114.615 242.058 114.044 242.263 113.513V113.513Z" fill="#CDEBF7"/>
<path d="M239.83 117.567C239.951 117.254 240.252 117.047 240.587 117.047H275.225C275.864 117.047 276.252 117.753 275.909 118.293V118.293C275.761 118.527 275.502 118.669 275.225 118.669H240.587C240.018 118.669 239.626 118.098 239.83 117.567V117.567Z" fill="#CDEBF7"/>
<path d="M237.398 121.62C237.519 121.308 237.819 121.101 238.155 121.101H272.793C273.432 121.101 273.82 121.807 273.477 122.347V122.347C273.328 122.581 273.07 122.723 272.793 122.723H238.155C237.585 122.723 237.193 122.152 237.398 121.62V121.62Z" fill="#CDEBF7"/>
<path d="M244.725 138.199C245.021 137.424 245.765 136.911 246.594 136.911H262.853C264.254 136.911 265.221 138.314 264.722 139.623L260.841 149.812C260.546 150.587 259.802 151.1 258.972 151.1H242.713C241.312 151.1 240.345 149.697 240.844 148.388L244.725 138.199Z" fill="#CDEBF7"/>
<path d="M243.221 133.763H269.755C270.803 133.763 271.528 134.811 271.158 135.792L264.56 153.278C264.34 153.862 263.781 154.248 263.157 154.248H236.623C235.574 154.248 234.849 153.199 235.219 152.218L241.818 134.733C242.038 134.149 242.597 133.763 243.221 133.763Z" stroke="#CDEBF7"/>
<path d="M149.818 101.38C146.589 97.2696 133.597 92.6245 129.928 91.8906C114.884 97.0281 102.556 87.876 97.2635 81.1241C93.9788 82.7665 75.0796 97.73 72.2631 121.453C69.6926 143.104 68.54 168.679 72.2632 208.679L162.774 189.883C158.616 154.165 153.046 105.49 149.818 101.38Z" fill="#523F38"/>
<path d="M129.928 91.8906C114.884 97.0281 102.556 87.876 97.2634 81.1241" stroke="white" stroke-width="2"/>
<path d="M122.81 112.693C131.423 95.9049 142.764 97.487 147.358 100.377C150.315 104.14 157.295 146.104 161.643 180.576C158.736 180.941 150.256 181.452 139.599 180.576C126.277 179.481 122.81 149.372 122.81 144.445C122.81 139.518 119.159 119.81 122.81 112.693Z" fill="#523F38"/>
<path d="M210.389 149.395C205.109 151.319 203.154 151.319 198.541 151.319L202.588 163.178C203.469 162.467 206.038 161.219 209.258 161.911C220.621 164.355 220.986 161.28 224.427 161.266C227.19 161.254 228.556 158.812 231.511 158.536C233.876 158.315 235.877 160.273 236.582 161.28C237.044 161.94 238.321 163.371 240.629 161.408C237.159 154.653 234.203 154.929 232.364 154.871C228.835 149.96 227.626 153.244 225.109 151.319C219.717 147.088 216.627 147.122 210.389 149.395Z" fill="#FBCBB8"/>
<path d="M231.511 158.535C233.875 158.314 235.876 160.273 236.581 161.279C235.389 158.953 231.511 157.036 228.649 158.861C224.087 161.781 225.108 159.591 223.722 160.321C215.081 163.971 209.257 160.503 208.576 160.321C208.031 160.175 205.673 154.064 204.562 151.027C202.706 151.319 201.001 151.319 198.541 151.319L202.587 163.177C203.469 162.467 206.038 161.219 209.257 161.911C220.62 164.354 220.985 161.279 224.426 161.265C227.19 161.254 228.555 158.811 231.511 158.535Z" fill="#E98E64"/>
<path d="M125.89 138.937C120.311 111.674 134.664 100.095 142.407 100.095C169.153 100.095 157.323 152.951 164.076 151.485C170.83 150.019 187.219 151.485 202.686 149.99L210.394 165.014C190.696 174.541 157.47 185.197 144.256 180.8C127.739 175.304 130.404 160.999 125.89 138.937Z" fill="#523F38"/>
<path d="M208.394 163.014L200.687 147.99" stroke="white" stroke-width="2"/>
<path d="M133.024 79.387C110.731 77.0321 108.464 53.0219 110.471 41.7082C115.293 28.0607 146.689 40.8283 146.957 43.2367L146.958 43.2475C147.237 45.7505 151.217 81.5246 133.024 79.387Z" fill="#FECBB5"/>
<path d="M110.471 41.7082C115.293 28.0607 146.689 40.8283 146.957 43.2367L146.958 43.2475C147.054 44.1045 147.583 48.8628 147.508 54.6642C135.584 52.8394 132.847 47 131.569 51.562C129.015 60.6861 122.81 61.5985 123.358 59.2263C124.757 52.8394 123.54 49.0073 119.343 52.8394C115.146 56.6715 122.993 65.9781 122.81 67.8029C122.664 69.2628 119.515 71.4525 117.958 72.365C109.756 63.7871 109.065 49.633 110.471 41.7082Z" fill="#E98E64"/>
<path d="M157.106 44.7786C159.358 29.8241 147.836 27.1481 141.257 27.8083C139 23.055 131.256 18.1911 126.452 18.9472C115.096 20.7343 111.979 29.4818 110.998 33.3312C96.5076 41.9315 103.684 50.7916 107.044 54.5428C108.446 56.1087 102.346 68.2323 104.428 72.8114C105.849 75.9432 120.093 72.8114 121.972 67.2777C122.686 65.1753 119.653 64.0063 117.552 58.0314C115.45 52.0565 121.151 49.1753 123.791 50.8737C126.432 52.572 122.299 60.7401 124.897 59.8263C131.897 56.4882 130.105 46.7598 133.639 48.8157C145.751 55.8637 155.621 54.6421 157.106 44.7786Z" fill="#05185A"/>
<path d="M146.168 53.25C152.055 53.6782 156.187 50.8839 157.106 44.7788C157.999 38.8455 156.725 34.845 154.451 32.2189C160.219 44.7788 150.365 49.372 146.168 53.25Z" fill="#312E63"/>
<rect width="11.6788" height="106.569" transform="matrix(-1 0 0 1 133.52 251.352)" fill="#312E63"/>
<path d="M133.52 357.921H121.841L133.52 251.352V357.921Z" fill="#232056"/>
<path d="M133.369 357.921H121.906C118.722 361.145 110.444 363.724 100.892 365.014C90.7034 366.389 82.425 366.303 82.425 377.264H174.761C174.761 366.303 169.666 366.303 155.02 365.014C143.303 363.982 135.704 359.855 133.369 357.921Z" fill="#232056"/>
<path d="M180.786 251.347V242.441C171.481 227.799 172.941 207.726 157.248 190.573C142.957 174.952 164.002 179.635 119.488 179.635C117.374 160.761 114.181 120.869 97.6998 114.631C71.1159 104.569 44.9852 117.047 48.9385 149.56C61.6206 253.892 68.978 251.347 87.4315 251.347H180.786Z" fill="#12AAE4"/>
<path d="M87.4315 251.347H180.786V249.684H74.4524C78.1734 251.538 82.388 251.347 87.4315 251.347Z" fill="#0F8DC2"/>
<path d="M143.038 251.516C131.687 251.516 130.922 253.784 117.467 166.485C120.909 168.19 120.397 172.111 134.607 174.157C161.183 177.983 165.445 191.346 176.794 226.931L176.887 227.222C179.123 234.232 180.839 240.066 190.459 245.642L186.679 251.516H143.038Z" fill="#24BCEB"/>
<path d="M143.038 251.516H186.679L190.459 245.642H132.491C135.286 251.928 138.201 251.516 143.038 251.516Z" fill="#12AAE4"/>
<path d="M143.248 251.562C152.891 251.562 117.437 251.516 186.679 251.516L187.774 249.737H134.854C137.029 252.022 139.737 251.562 143.248 251.562Z" fill="#0F8DC2"/>
<path d="M317.141 127.759C315.965 133.122 317.63 143.945 318.61 148.685H321.058C322.772 141.981 320.568 133.244 320.568 129.384C320.568 126.296 318.936 121.325 318.119 119.225C318.283 119.835 318.316 122.395 317.141 127.759Z" fill="#1889D1"/>
<path d="M318.855 148.482C316.325 145.028 311.607 136.129 312.978 128.165C314.08 121.769 314.307 119.051 314.269 118.158C314.246 118.033 314.224 117.915 314.203 117.803C314.235 117.83 314.26 117.939 314.269 118.158C314.776 120.89 315.672 126.478 315.672 129.587C315.672 133.65 320.079 140.558 321.304 148.482H318.855Z" fill="#1AA0D5"/>
<path d="M311.754 137.714C315.28 140.802 317.468 146.179 318.121 148.482H320.324C320.814 145.434 317.631 138.526 314.203 136.088C311.46 134.138 308.489 129.045 307.346 126.742C307.346 129.113 308.228 134.625 311.754 137.714Z" fill="#1889D1"/>
<path d="M311.508 141.981C313.859 143.769 315.426 147.06 315.916 148.482H318.12C317.875 146.247 315.182 140.965 312.733 139.746C310.774 138.771 308.652 135.953 307.835 134.667C308.08 136.36 309.158 140.193 311.508 141.981Z" fill="#1AA0D5"/>
<path d="M318.856 148.28C317.958 145.232 316.848 138.162 319.59 134.261C322.993 129.421 325.188 121.779 324.982 119.679C324.98 119.663 324.978 119.648 324.976 119.632C324.978 119.648 324.98 119.663 324.982 119.679C325.468 124.14 325.703 129.61 323.262 135.886C321.303 140.925 320.814 146.248 320.814 148.28H318.856Z" fill="#1AA0D5"/>
<path d="M322.773 138.323C320.03 141.248 319.834 145.772 320.079 147.669H321.058C321.547 145.637 324.731 141.167 326.935 137.916C329.138 134.666 328.893 128.367 328.893 124.304C328.893 127.555 326.201 134.666 322.773 138.323Z" fill="#1889D1"/>
<path d="M328.405 139.948C325.858 141.899 323.426 146.043 322.528 147.872H320.324C320.079 147.263 323.997 140.355 326.446 138.323C328.894 136.291 331.343 131.009 332.322 128.164C332.812 130.399 332.118 137.104 328.405 139.948Z" fill="#1AA0D5"/>
<path d="M330.598 146.008H306.934L311.553 163.059H326.46L330.598 146.008Z" fill="#F4BD34"/>
<path d="M309.778 149.032L309.315 145.993H328.425L328.002 149.032M309.778 149.032H328.002M309.778 149.032L310.241 152.072M328.002 149.032L327.579 152.072M310.241 152.072H327.579M310.241 152.072L310.704 155.111M327.579 152.072L327.157 155.111M310.704 155.111H327.157M310.704 155.111L311.068 157.499M327.157 155.111L326.824 157.499M311.068 157.499H326.824M311.068 157.499L311.498 160.321M326.824 157.499L326.432 160.321M311.498 160.321L311.928 162.779H326.039L326.432 160.321M311.498 160.321H326.432" stroke="#FFDD79"/>
</svg>
