<svg width="1114" height="814" viewBox="0 0 1114 814" fill="none" xmlns="http://www.w3.org/2000/svg">
<path fill-rule="evenodd" clip-rule="evenodd" d="M626.965 7.4126C715.424 32.8716 731.068 140.613 796.506 199.482C840.953 239.466 901.602 257.834 947.891 296.119C1009.62 347.172 1103.99 386.72 1113.12 461.351C1122.06 534.426 1061.65 610.862 991.047 648.802C921.714 686.06 832.968 647.77 752.446 655.167C708.896 659.168 666.176 664.883 626.965 682.248C545.422 718.36 491.166 802.66 400.602 810.986C296.207 820.584 178.142 797.082 104.656 730.266C30.0256 662.41 -28.99 547.488 16.063 461.351C67.0202 363.926 248.234 388.472 326.281 306.541C383.387 246.593 320.896 138.115 379.772 79.5432C438.644 20.9763 543.029 -16.7447 626.965 7.4126Z" fill="#FF715B" fill-opacity="0.2"/>
</svg>
