<svg width="582" height="509" viewBox="0 0 582 509" fill="none" xmlns="http://www.w3.org/2000/svg">
<path fill-rule="evenodd" clip-rule="evenodd" d="M325.107 80.1584C373.367 62.6748 403.041 -1.69843 454.341 0.0343226C498.529 1.52683 529.336 49.5825 551.554 87.8071C572.876 124.491 590.258 170.64 576.916 210.919C562.673 253.918 481.673 258.485 480.025 303.752C477.804 364.77 579.811 402.057 567.78 461.918C558.758 506.809 484.4 514.345 439.422 505.771C391.155 496.57 372.273 429.435 325.107 415.658C295.386 406.977 268.634 456.15 238.985 447.226C211.046 438.816 217.621 387.345 191.043 375.305C132.993 349.009 38.2528 395.944 5.3287 341.38C-21.5595 296.819 60.3095 254.791 94.8162 215.83C118.257 189.364 150.277 173.841 175.581 149.15C197.538 127.726 206.413 92.6152 234.267 79.7628C262.111 66.9157 296.276 90.6033 325.107 80.1584Z" fill="#C4C4C4" fill-opacity="0.28"/>
</svg>
